# xmcd CD database file
#
# Track frame offsets:
#	150
#	16873
#	33154
#	53609
#	79978
#	99083
#	120369
#	141178
#	165365
#	198414
#	224747
#	241374
#	259988
#	281342
#	299148
#	318727
#
# Disc length: 4324 seconds
#
# Revision: 14
# Processed by: cddbd v1.5.2PL0 Copyright (c) Steve Scherf et al.
# Submitted via: CDex 1.70beta2
#
DISCID=e510e210
DTITLE=DREAMS COME TRUE - GREATEST HITS The SOUL Disc2
DYEAR=2000
DGENRE=J-Pop
TTITLE0=LOVE LOVE LOVE
TTITLE1=すき 〜ALBUM VERSION〜
TTITLE2=愛してる　愛してた
TTITLE3=悲しいKiss
TTITLE4=三日月
TTITLE5=WINTER SONG (“雪のクリスマス” WORLDWIDE VERSION)
TTITLE6=The signs of LOVE 〜ETERNITY “DELICIOUS” VERSION+〜
TTITLE7=未来予想図
TTITLE8=未来予想図Ⅱ
TTITLE9=星空が映る海
TTITLE10=サンキュ．
TTITLE11=琥珀の月
TTITLE12=LOVE GOES ON…
TTITLE13=眼鏡越しの空
TTITLE14=時間旅行
TTITLE15=HAPPY HAPPY BIRTHDAY
EXTD=YEAR: 2000
EXTT0=
EXTT1=
EXTT2=
EXTT3=
EXTT4=
EXTT5=
EXTT6=
EXTT7=
EXTT8=
EXTT9=
EXTT10=
EXTT11=
EXTT12=
EXTT13=
EXTT14=
EXTT15=
PLAYORDER=
